# xmcd CD database file
#
# Track frame offsets:
#	150
#	14034
#	29380
#	42608
#	55186
#	68126
#	83293
#	97046
#	109376
#	120037
#	134538
#	146701
#	157516
#	169178
#	183470
#	198145
#	211902
#	223768
#	238039
#	252227
#	263365
#	276673
#	291402
#	304816
#	319097
#
# Disc length: 4413 seconds
#
# Revision: 0
# Processed by: cddbd v1.5.1PL0 Copyright (c) Steve Scherf et al.
# Submitted via: CDex 1.51
#
DISCID=71113b19
DTITLE=Nat King Cole - 50 Nat 'King' Cole
DYEAR=1950
DGENRE=Jazz
TTITLE0=For Sentimental Reasons
TTITLE1=Embraceable You
TTITLE2=It's Only A Paper Moon
TTITLE3=I Don't Know Why
TTITLE4=Besame Mucho
TTITLE5=Just You, Just Me
TTITLE6=What Can I Say, After I Say I'm Sorry
TTITLE7=If Yesterday Could Only Be Tomorrow
TTITLE8=Too Marvellous For Words
TTITLE9=I'm In The Mood For Love
TTITLE10=That'll Just About Knock Me Out
TTITLE11=If You Can't Smile And Say Yes
TTITLE12=Straighten Up And Fly Right
TTITLE13=Laura
TTITLE14=I Realize Now
TTITLE15=You Must Be Blind
TTITLE16=I Thought You Ought To Know
TTITLE17=Sweet Lorraine
TTITLE18=I Just Can't See For Lookin'
TTITLE19=Jumpin' At Capitol
TTITLE20=Gee Baby, Ain't I Good To You?
TTITLE21=That Ain't Right
TTITLE22=Hit The Jive Jack
TTITLE23=Are You Fer It?
TTITLE24=Stop! The Red Light's On
EXTD=YEAR: 1950
EXTT0=
EXTT1=
EXTT2=
EXTT3=
EXTT4=
EXTT5=
EXTT6=
EXTT7=
EXTT8=
EXTT9=
EXTT10=
EXTT11=
EXTT12=
EXTT13=
EXTT14=
EXTT15=
EXTT16=
EXTT17=
EXTT18=
EXTT19=
EXTT20=
EXTT21=
EXTT22=
EXTT23=
EXTT24=
PLAYORDER=
